<svg xmlns="http://www.w3.org/2000/svg" width="256" height="256"><path fill-opacity=".016" d="M0 128.004v128.004l128.25-.254 128.25-.254.254-127.75L257.008 0H0v128.004m.485.496c0 70.4.119 99.053.265 63.672.146-35.38.146-92.98 0-128C.604 29.153.485 58.1.485 128.5" fill="#1976D2" fill-rule="evenodd"/><path fill-opacity=".207" d="M155.2 1.2c-.835.835-1.2 6.16-1.2 17.521v16.322l2.5 1.139c1.87.852 3.13.852 5 0l2.5-1.139V18.721C164 1.231 163.671 0 159 0c-1.43 0-3.14.54-3.8 1.2m-41.45 7.88c-1.069.623-1.75 2.222-1.75 4.11 0 2.563 1.658 4.778 9.724 12.987 11.812 12.023 15.973 13.577 18.447 6.89.768-2.077-.386-3.606-10.348-13.702-6.167-6.251-11.912-11.351-12.768-11.335-.855.017-2.342.489-3.305 1.05m74.427 10.285c-9.962 10.096-11.116 11.625-10.348 13.702 2.474 6.687 6.635 5.133 18.447-6.89 8.086-8.229 9.724-10.42 9.724-13.002C206 10.101 203.872 8 200.76 8c-.754 0-6.416 5.114-12.583 11.365M111.775 65.75l-9.329 15.75-14.223.277L74 82.055v-5.593c0-6.131-.909-8.519-4.872-12.801C65.303 59.528 61.759 58 56 58s-9.303 1.528-13.128 5.661C38.912 67.94 38 70.331 38 76.434V82l-9.25.022C14.745 82.055 7.272 86.158 2.383 96.5l-2.363 5L.032 169c.011 63.177.129 67.756 1.835 71.5 2.743 6.017 6.607 10.059 12.353 12.922L19.393 256h217.214l5.173-2.578c5.93-2.954 9.359-6.647 12.801-13.782l2.419-5.014v-67.48c0-37.114-.298-67.181-.662-66.817-.364.364-1.516-1.248-2.559-3.583-2.37-5.306-6.11-9.306-11.279-12.063-3.173-1.693-6.371-2.242-15.476-2.658l-11.475-.525-9.327-15.75L196.896 50h-75.792l-9.329 15.75m9.667 4.382c-3.268 5.573-6.092 10.523-6.275 11-.186.483 19.277.868 43.833.868 24.556 0 44.019-.385 43.833-.868-.183-.477-3.007-5.427-6.275-11L190.616 60h-63.232l-5.942 10.132m-70.519.791c-2.275 2.275-2.923 3.827-2.923 7V82h16v-4.077c0-3.173-.648-4.725-2.923-7-3.697-3.697-6.457-3.697-10.154 0M19.45 93.399c-4.025 1.763-8.228 6.87-8.953 10.88-.32 1.772-.451 32.101-.29 67.398.288 63.027.33 64.227 2.355 66.938 1.134 1.519 3.304 3.689 4.823 4.823 2.749 2.053 3.244 2.062 110.615 2.062s107.866-.009 110.615-2.062c1.519-1.134 3.689-3.304 4.823-4.823 2.034-2.725 2.062-3.653 2.062-69.615 0-65.962-.028-66.89-2.062-69.615-1.134-1.519-3.304-3.689-4.823-4.823-2.744-2.049-3.425-2.063-109.438-2.28-87.16-.178-107.235.026-109.727 1.117M.473 169c0 37.675.124 53.087.277 34.25.152-18.838.152-49.663 0-68.5C.597 115.912.473 131.325.473 169m143.268-61.438c-8.883 2.153-11.741 3.956-11.741 7.407 0 1.808.78 3.464 2.05 4.354 1.806 1.265 2.79 1.202 8.25-.526 19.509-6.173 39.373-1.339 53.784 13.088 29.751 29.782 14.716 79.895-26.584 88.604-8.773 1.85-12.227 1.85-21 0-18.725-3.949-33.386-16.992-39.675-35.299-3.129-9.106-3.151-23.997-.048-32.51 2.321-6.37 1.822-10.029-1.488-10.894-3.961-1.036-6.016.889-8.423 7.893-3.309 9.627-3.38 27.622-.148 37.821 6.199 19.566 22.225 35.59 41.782 41.779 9.927 3.142 27.073 3.142 37 0 19.557-6.189 35.583-22.213 41.782-41.779 2.973-9.382 3.145-28.196.334-36.5-7.449-22.004-24.85-38.543-45.73-43.465-7.863-1.854-22.437-1.841-30.145.027M39.2 124.2c-1.683 1.683-1.494 5.364.371 7.229 2.318 2.317 30.54 2.317 32.858 0 1.865-1.865 2.054-5.546.371-7.229-1.68-1.68-31.92-1.68-33.6 0m75 0c-2.828 2.828-.249 8.8 3.8 8.8 4.049 0 6.628-5.972 3.8-8.8-1.547-1.547-6.053-1.547-7.6 0m33.3 5.146c-11.789 3.904-20.708 11.65-25.807 22.413-2.965 6.259-3.192 7.491-3.178 17.241.012 8.709.394 11.327 2.238 15.349 5.439 11.867 14.498 20.071 26.174 23.705 20.198 6.287 41.083-3.552 50.32-23.705 1.844-4.022 2.226-6.64 2.238-15.349.014-9.75-.213-10.982-3.178-17.241-4.152-8.763-11.348-15.947-20.066-20.029-5.742-2.689-8.075-3.197-15.741-3.433-5.53-.169-10.542.235-13 1.049m1.705 10.487c-10.171 3.631-18.11 12.576-20.232 22.796-3.42 16.477 6.626 31.884 23.508 36.05 5.99 1.478 7.048 1.478 13.038 0 10.685-2.637 18.304-9.285 22.551-19.679 2.135-5.224 1.741-16.526-.77-22.122-6.548-14.592-23.598-22.22-38.095-17.045m6.476 10.629c-1.977 1.977-2.21 5.892-.431 7.24.688.522 3.164 1.495 5.504 2.164 4.482 1.282 6.65 3.676 7.816 8.634.388 1.65 1.149 3.563 1.69 4.25 1.401 1.778 5.301 1.546 7.28-.432 2.173-2.173 1.346-9.149-1.662-14.015-4.402-7.124-16.297-11.741-20.197-7.841" fill="#1976D2" fill-rule="evenodd"/><path fill-opacity=".724" d="M155.655 1.829C154.268 3.361 154 6.113 154 18.806c0 15.054.015 15.158 2.5 16.786 2.316 1.517 2.684 1.517 5 0 2.487-1.629 2.5-1.72 2.5-16.96 0-13.574-.209-15.511-1.829-16.977-2.377-2.151-4.462-2.095-6.516.174M113.2 10.2c-2.755 2.755-1.107 5.507 9.651 16.108C128.818 32.188 134.374 37 135.196 37c2.035 0 4.804-3.225 4.804-5.597 0-1.128-4.292-6.216-10.267-12.171C119.33 8.864 116.229 7.171 113.2 10.2m75.032 9.067C181.833 25.688 178 30.312 178 31.612c0 2.271 2.88 5.388 4.978 5.388C185.256 37 206 15.832 206 13.508 206 10.679 204.149 9 201.032 9c-1.926 0-5.125 2.566-12.8 10.267M120.811 51.75c-.825.962-5.265 8.162-9.867 16L102.576 82H74v-4.788c0-11.983-10.152-20.907-21.388-18.799C44.345 59.964 38 68.086 38 77.118v4.695l-9.75.36c-13.69.505-20.909 4.539-25.813 14.424C.578 100.343.5 103.256.5 169c0 64.887.098 68.685 1.862 72 2.599 4.886 7.423 9.789 12.138 12.338l4 2.162h219l4.068-2.178c5.026-2.69 10.56-8.69 12.294-13.329.717-1.921 1.717-4.274 2.221-5.229 1.189-2.252 1.227-133.074.039-132.339-.483.298-1.145-.79-1.471-2.418-.787-3.937-4.966-10.124-8.705-12.889-5.121-3.786-10.549-5.118-20.86-5.118h-9.662l-8.368-14.25c-4.602-7.838-9.042-15.038-9.867-16C195.812 50.142 192.705 50 159 50s-36.812.142-38.189 1.75m-.119 19l-6.38 10.75 22.344.269c12.289.148 32.399.148 44.688 0l22.344-.269-6.38-10.75L190.927 60h-63.854l-6.381 10.75m-70.237-.295c-1.887 1.886-2.455 3.507-2.455 7V82h16v-4.545C64 71.834 60.756 68 56 68c-1.948 0-3.998.907-5.545 2.455M18.218 93.663c-1.805.89-4.28 3.017-5.5 4.727L10.5 101.5l-.265 66.5c-.253 63.319-.176 66.667 1.604 70 1.028 1.925 3.622 4.505 5.765 5.734l3.896 2.233h213l3.896-2.233c2.143-1.229 4.737-3.809 5.765-5.734 1.78-3.333 1.857-6.681 1.604-70l-.265-66.5-2.23-3.127c-4.826-6.764 2.243-6.375-115.421-6.35-95.919.02-106.671.181-109.631 1.64M.472 169c0 36.575.125 51.537.278 33.25.152-18.288.152-48.213 0-66.5C.597 117.462.472 132.425.472 169m145.707-61.536c-9.859 2.245-13.679 4.459-13.679 7.927 0 4.52 2.379 5.334 9.184 3.144 7.333-2.361 21.174-3.122 28.627-1.574 19.465 4.041 36.371 21.129 40.729 41.167 1.652 7.597.778 20.918-1.852 28.22-5.416 15.04-17.568 27.235-32.688 32.805-4.898 1.804-8.112 2.21-17.5 2.21s-12.602-.406-17.5-2.21c-15.002-5.527-27.283-17.847-32.7-32.805-2.948-8.139-3.552-21.912-1.31-29.848 2.591-9.167 2.847-11.389 1.502-13.009-1.844-2.223-5.732-1.824-7.391.759-5.059 7.879-6.741 29.457-3.215 41.25 5.112 17.101 17.346 31.848 32.712 39.432 12.508 6.174 24.255 7.995 37.554 5.821 24.326-3.975 43.751-21.221 50.971-45.253 1.282-4.266 1.79-9.179 1.759-17-.07-17.222-4.981-29.653-16.641-42.118-7.639-8.166-15.183-13.083-25.556-16.659-10.315-3.555-23.385-4.45-33.006-2.259M39.655 124.829c-2.268 2.506-2.075 4.764.568 6.614 3.222 2.257 28.332 2.257 31.554 0 2.699-1.89 2.854-4.562.394-6.788-1.525-1.38-4.241-1.655-16.345-1.655-12.793 0-14.712.217-16.171 1.829m75 0c-2.325 2.569-2.06 4.86.778 6.719 4.596 3.011 9.662-2.576 6.002-6.62-2.192-2.422-4.645-2.459-6.78-.099m35.577 4.168c-6.501 1.378-15.703 6.73-20.635 12.003-22.492 24.046-9.458 62.392 23.153 68.117 26.624 4.673 51.261-20.224 46.356-46.846-3.445-18.695-18.75-32.589-37.143-33.719-4.105-.253-9.384-.052-11.731.445m-1.516 10.483c-25.986 9.881-27.625 44.677-2.716 57.652 6.474 3.372 19.526 3.372 26 0 6.13-3.193 11.646-8.638 14.822-14.632 2.261-4.267 2.652-6.246 2.664-13.5.011-6.882-.426-9.394-2.299-13.195-2.956-6.003-9.01-12.05-14.992-14.977-5.816-2.845-17.74-3.53-23.479-1.348m7.507 11.077c-4.069 2.849-1.784 8.443 3.448 8.443 3.31 0 9.329 5.965 9.329 9.245 0 2.502 2.729 5.755 4.829 5.755.644 0 2.088-.917 3.209-2.038 3.563-3.563.92-12.157-5.46-17.759-3.061-2.688-8.865-5.18-12.105-5.197-.566-.003-2.028.695-3.25 1.551" fill="#1976D2" fill-rule="evenodd"/><path fill-opacity=".964" d="M156 2c-1.81 1.81-2 3.333-2 16.066 0 7.783.462 14.929 1.035 16C155.697 35.302 157.127 36 159 36c1.873 0 3.303-.698 3.965-1.934.573-1.071 1.035-8.217 1.035-16C164 5.333 163.81 3.81 162 2c-1.1-1.1-2.45-2-3-2-.55 0-1.9.9-3 2m-42.965 8.934c-.569 1.064-1.035 2.479-1.035 3.145 0 .666 4.585 5.871 10.19 11.566C130.263 33.849 132.956 36 135.155 36c3.103 0 5.313-2.951 4.389-5.862-.312-.983-4.999-6.141-10.416-11.462-10.365-10.184-13.881-11.875-16.093-7.742m75.837 7.742c-5.417 5.321-10.104 10.479-10.416 11.462-.924 2.911 1.286 5.862 4.389 5.862 2.199 0 4.892-2.151 12.965-10.355 5.605-5.695 10.19-10.9 10.19-11.566C206 11.357 203.83 9 201.325 9c-1.949 0-5.087 2.438-12.453 9.676M121.818 51.25c-.861.688-5.46 7.888-10.221 16L102.94 82H74.28l-.556-5.387C72.389 63.68 62.994 56.21 51.653 59.066c-7.716 1.943-12.4 8.087-13.377 17.547L37.72 82h-7.178C16.773 82 7.725 86.833 2.808 96.814L.5 101.5v135l2.318 4.706c2.589 5.256 7.726 10.221 13.109 12.669C19.155 255.343 29.981 255.5 128 255.5h108.5l4.747-2.338c5.847-2.879 11.441-9.234 12.868-14.617.59-2.225 1.48-4.826 1.979-5.781 1.29-2.472 1.197-129.062-.094-128.264-.553.342-1-.384-1-1.625 0-3.656-3.838-10.496-7.999-14.255-5.083-4.592-12.17-6.62-23.136-6.62h-8.771l-8.662-14.75c-4.764-8.112-9.371-15.312-10.238-16-2.275-1.805-72.118-1.805-74.376 0m-1.528 19.51l-6.209 10.74 22.459.269c12.353.148 32.567.148 44.92 0l22.459-.269-6.209-10.74-6.21-10.74h-65l-6.21 10.74m-70.116-.446c-1.593 1.697-2.174 3.566-2.174 7V82h16v-4.826c0-3.751-.515-5.309-2.314-7-3.172-2.979-8.643-2.913-11.512.14M22.275 91.96c-4.503 1.085-8.036 3.6-10.319 7.344-1.88 3.083-1.949 5.542-1.949 69.696 0 64.596.057 66.593 1.988 69.759 1.093 1.793 3.453 4.153 5.246 5.246 3.199 1.951 5.251 1.988 110.759 1.988s107.56-.037 110.759-1.988c1.793-1.093 4.153-3.453 5.246-5.246 1.931-3.166 1.988-5.166 1.991-69.861l.004-66.602-2.253-3.344c-1.24-1.839-3.827-4.268-5.75-5.398-3.463-2.034-4.526-2.056-107.997-2.213-57.475-.087-105.951.191-107.725.619M.471 169c0 35.475.125 49.988.279 32.25.153-17.737.153-46.762 0-64.5C.596 119.013.471 133.525.471 169M152 106.653c-1.925.234-6.785 1.38-10.801 2.547-7.571 2.2-9.834 4.224-8.703 7.787.954 3.006 3.828 3.262 10.667.951 9.416-3.183 22.954-3.01 32.817.42 16.964 5.9 30.057 19.829 34.567 36.773 1.81 6.8 1.842 20.819.063 27.501-3.276 12.302-12.701 25.044-23.195 31.357-9.526 5.73-17.485 7.959-28.415 7.959-24.201 0-44.02-14.817-51.154-38.245-1.698-5.577-1.988-8.628-1.616-17 .266-5.97 1.165-12.191 2.166-14.995 1.908-5.34 1.454-8.303-1.409-9.212-3.242-1.029-5.499 1.114-7.347 6.976-9.346 29.649 4.275 61.934 31.817 75.415C140.185 229.159 148.479 231 159 231s18.815-1.841 27.543-6.113c23.527-11.515 37.485-37.267 34.328-63.334-3.63-29.977-27.767-52.844-57.876-54.831-4.122-.272-9.07-.303-10.995-.069M40.024 124.976c-1.483 1.483-1.767 2.545-1.136 4.25.828 2.238 1.097 2.274 17.227 2.274H72.5l.336-2.951c.555-4.879-1.501-5.549-17.027-5.549-12.421 0-14.008.199-15.785 1.976M115 125c-2.35 2.35-2.437 3.02-.701 5.395.865 1.182 2.287 1.664 4.25 1.441 2.43-.277 3.01-.857 3.287-3.287.223-1.963-.259-3.385-1.441-4.25-2.375-1.736-3.045-1.649-5.395.701m35.103 4.547c-3.519.763-8.857 2.865-11.862 4.67-27.514 16.528-25.47 57.357 3.558 71.109 6.204 2.938 7.48 3.174 17.201 3.174s10.997-.236 17.201-3.174c34.736-16.456 28.786-67.867-8.775-75.824-8.247-1.747-9.073-1.745-17.323.045m3.817 8.529c-9.797 1.518-18.218 7.831-22.873 17.146C128.445 160.429 128 162.441 128 169c0 6.575.443 8.566 3.076 13.835 3.102 6.209 8.042 11.105 14.924 14.79 5.403 2.894 21 2.67 26.722-.384 6.696-3.573 10.95-7.897 14.231-14.463C189.555 177.571 190 175.559 190 169s-.445-8.571-3.047-13.778c-6.251-12.509-19.287-19.276-33.033-17.146m1.394 13.674c-.342.963-.794 2.071-1.005 2.464-.739 1.38 3.721 4.786 6.268 4.786 3.56 0 8.423 5.036 8.423 8.723 0 1.582.54 3.417 1.2 4.077 1.738 1.738 6.476 1.487 7.193-.382 1.739-4.531-.782-12.813-5.037-16.547-5.478-4.809-15.77-6.693-17.042-3.121" fill="#1976D2" fill-rule="evenodd"/></svg>